<svg width="38" height="38" viewBox="0 0 38 38" fill="none" xmlns="http://www.w3.org/2000/svg">
<g clip-path="url(#clip0_206_262)">
<g filter="url(#filter0_d_206_262)">
<path d="M30.2375 17.7308H8.65413C6.95126 17.7308 5.5708 19.1113 5.5708 20.8141V31.6058C5.5708 33.3087 6.95126 34.6891 8.65413 34.6891H30.2375C31.9403 34.6891 33.3208 33.3087 33.3208 31.6058V20.8141C33.3208 19.1113 31.9403 17.7308 30.2375 17.7308Z" stroke="#0075FF" stroke-width="4" stroke-linecap="round" stroke-linejoin="round" shape-rendering="crispEdges"/>
</g>
<path d="M11.7373 17.7308V11.5641C11.7354 9.65253 12.4438 7.80841 13.7251 6.38977C15.0064 4.97113 16.769 4.07918 18.671 3.88707C20.5729 3.69495 22.4783 4.21639 24.0174 5.35014C25.5565 6.4839 26.6194 8.14909 26.9998 10.0225V17.7308" stroke="#0075FF" stroke-width="4" stroke-linecap="round" stroke-linejoin="round"/>
</g>
<defs>
<filter id="filter0_d_206_262" x="-0.429199" y="15.7308" width="39.75" height="28.9583" filterUnits="userSpaceOnUse" color-interpolation-filters="sRGB">
<feFlood flood-opacity="0" result="BackgroundImageFix"/>
<feColorMatrix in="SourceAlpha" type="matrix" values="0 0 0 0 0 0 0 0 0 0 0 0 0 0 0 0 0 0 127 0" result="hardAlpha"/>
<feOffset dy="4"/>
<feGaussianBlur stdDeviation="2"/>
<feComposite in2="hardAlpha" operator="out"/>
<feColorMatrix type="matrix" values="0 0 0 0 0 0 0 0 0 0 0 0 0 0 0 0 0 0 0.25 0"/>
<feBlend mode="normal" in2="BackgroundImageFix" result="effect1_dropShadow_206_262"/>
<feBlend mode="normal" in="SourceGraphic" in2="effect1_dropShadow_206_262" result="shape"/>
</filter>
<clipPath id="clip0_206_262">
<rect width="37" height="37" fill="white" transform="translate(0.945801 0.772461)"/>
</clipPath>
</defs>
</svg>
